HIERARCHY
ROOT Hips
{
  OFFSET 377.763 88.2609 174.383
  CHANNELS 6 Xposition Yposition Zposition Zrotation Xrotation Yrotation
  JOINT RightUpLeg
  {
    OFFSET -9.30536 -1.56319 -0.0308412
    CHANNELS 3 Zrotation Xrotation Yrotation
    JOINT RightLeg
    {
      OFFSET -0.0509473 -41.8867 0.0408735
      CHANNELS 3 Zrotation Xrotation Yrotation
      JOINT RightFoot
      {
        OFFSET -0.135761 -42.7852 -0.897951
        CHANNELS 3 Zrotation Xrotation Yrotation
        End Site
        {
          OFFSET 0 -7.69 17.5
        }
      }
    }
  }
  JOINT LeftUpLeg
  {
    OFFSET 9.25165 -1.62789 -0.00729124
    CHANNELS 3 Zrotation Xrotation Yrotation
    JOINT LeftLeg
    {
      OFFSET 0.024936 -41.8804 0.00207043
      CHANNELS 3 Zrotation Xrotation Yrotation
      JOINT LeftFoot
      {
        OFFSET 0.245063 -40.7505 0.529473
        CHANNELS 3 Zrotation Xrotation Yrotation
        End Site
        {
          OFFSET 0 -7.69 17.5
        }
      }
    }
  }
  JOINT Spine
  {
    OFFSET 0.0381636 14.2969 0.0214663
    CHANNELS 3 Zrotation Xrotation Yrotation
    JOINT Spine1
    {
      OFFSET 0.0273681 9.71499 0.0100001
      CHANNELS 3 Zrotation Xrotation Yrotation
      JOINT Spine2
      {
        OFFSET 0.029022 10.1215 -0.000399631
        CHANNELS 3 Zrotation Xrotation Yrotation
        JOINT Spine3
        {
          OFFSET 0.0290531 9.71322 0.0107928
          CHANNELS 3 Zrotation Xrotation Yrotation
          JOINT Neck
          {
            OFFSET 0.0830829 10.3832 0.0498053
            CHANNELS 3 Zrotation Xrotation Yrotation
            JOINT Head
            {
              OFFSET 0.0700972 9.47827 0.0499309
              CHANNELS 3 Zrotation Xrotation Yrotation
              End Site
              {
                OFFSET 0 15.95 0
              }
            }
          }
          JOINT RightShoulder
          {
            OFFSET -3.16088 6.93633 0.0290789
            CHANNELS 3 Zrotation Xrotation Yrotation
            JOINT RightArm
            {
              OFFSET -12.7509 0.028765 0.0682708
              CHANNELS 3 Zrotation Xrotation Yrotation
              JOINT RightForeArm
              {
                OFFSET -26.5067 -0.0728143 0.13822
                CHANNELS 3 Zrotation Xrotation Yrotation
                JOINT RightHand
                {
                  OFFSET -25.9897 -0.0664148 0.00141744
                  CHANNELS 3 Zrotation Xrotation Yrotation
                  JOINT RightHandThumb1
                  {
                    OFFSET -2.48905 0.190105 3.12053
                    CHANNELS 3 Zrotation Xrotation Yrotation
                    JOINT RightHandThumb2
                    {
                      OFFSET -3.68274 0 0
                      CHANNELS 3 Zrotation Xrotation Yrotation
                      JOINT RightHandThumb3
                      {
                        OFFSET -2.55832 0 0
                        CHANNELS 3 Zrotation Xrotation Yrotation
                        End Site
                        {
                          OFFSET -2.194 0 0
                        }
                      }
                    }
                  }
                  JOINT RightInHandIndex
                  {
                    OFFSET -3.22368 0.508421 1.97842
                    CHANNELS 3 Zrotation Xrotation Yrotation
                    JOINT RightHandIndex1
                    {
                      OFFSET -5.21684 -0.091368 0.999158
                      CHANNELS 3 Zrotation Xrotation Yrotation
                      JOINT RightHandIndex2
                      {
                        OFFSET -3.61937 0 0
                        CHANNELS 3 Zrotation Xrotation Yrotation
                        JOINT RightHandIndex3
                        {
                          OFFSET -2.0521 0 0
                          CHANNELS 3 Zrotation Xrotation Yrotation
                          End Site
                          {
                            OFFSET -1.805 0 0
                          }
                        }
                      }
                    }
                  }
                  JOINT RightInHandMiddle
                  {
                    OFFSET -3.38211 0.517263 0.756737
                    CHANNELS 3 Zrotation Xrotation Yrotation
                    JOINT RightHandMiddle1
                    {
                      OFFSET -5.17411 -0.084 0.313895
                      CHANNELS 3 Zrotation Xrotation Yrotation
                      JOINT RightHandMiddle2
                      {
                        OFFSET -3.94947 0 0
                        CHANNELS 3 Zrotation Xrotation Yrotation
                        JOINT RightHandMiddle3
                        {
                          OFFSET -2.47579 0 0
                          CHANNELS 3 Zrotation Xrotation Yrotation
                          End Site
                          {
                            OFFSET -1.975 0 0
                          }
                        }
                      }
                    }
                  }
                  JOINT RightInHandRing
                  {
                    OFFSET -3.36516 0.537895 -0.128947
                    CHANNELS 3 Zrotation Xrotation Yrotation
                    JOINT RightHandRing1
                    {
                      OFFSET -4.63474 -0.022105 -0.478947
                      CHANNELS 3 Zrotation Xrotation Yrotation
                      JOINT RightHandRing2
                      {
                        OFFSET -3.44238 0 0
                        CHANNELS 3 Zrotation Xrotation Yrotation
                        JOINT RightHandRing3
                        {
                          OFFSET -2.3881 0 0
                          CHANNELS 3 Zrotation Xrotation Yrotation
                          End Site
                          {
                            OFFSET -1.857 0 0
                          }
                        }
                      }
                    }
                  }
                  JOINT RightInHandPinky
                  {
                    OFFSET -3.16105 0.469368 -1.20179
                    CHANNELS 3 Zrotation Xrotation Yrotation
                    JOINT RightHandPinky1
                    {
                      OFFSET -4.14105 -0.022105 -1.09053
                      CHANNELS 3 Zrotation Xrotation Yrotation
                      JOINT RightHandPinky2
                      {
                        OFFSET -2.75653 0 0
                        CHANNELS 3 Zrotation Xrotation Yrotation
                        JOINT RightHandPinky3
                        {
                          OFFSET -1.74189 0 0
                          CHANNELS 3 Zrotation Xrotation Yrotation
                          End Site
                          {
                            OFFSET -1.645 0 0
                          }
                        }
                      }
                    }
                  }
                }
              }
            }
          }
          JOINT LeftShoulder
          {
            OFFSET 3.23403 6.91572 -0.0126821
            CHANNELS 3 Zrotation Xrotation Yrotation
            JOINT LeftArm
            {
              OFFSET 12.8488 -0.0444641 -0.0528339
              CHANNELS 3 Zrotation Xrotation Yrotation
              JOINT LeftForeArm
              {
                OFFSET 26.4942 -0.0237746 -0.09002
                CHANNELS 3 Zrotation Xrotation Yrotation
                JOINT LeftHand
                {
                  OFFSET 25.9989 -0.00653758 -0.026747
                  CHANNELS 3 Zrotation Xrotation Yrotation
                  JOINT LeftHandThumb1
                  {
                    OFFSET 2.48905 0.190105 3.12053
                    CHANNELS 3 Zrotation Xrotation Yrotation
                    JOINT LeftHandThumb2
                    {
                      OFFSET 3.68274 0 0
                      CHANNELS 3 Zrotation Xrotation Yrotation
                      JOINT LeftHandThumb3
                      {
                        OFFSET 2.55832 0 0
                        CHANNELS 3 Zrotation Xrotation Yrotation
                        End Site
                        {
                          OFFSET 2.194 0 0
                        }
                      }
                    }
                  }
                  JOINT LeftInHandIndex
                  {
                    OFFSET 3.22368 0.508421 1.97842
                    CHANNELS 3 Zrotation Xrotation Yrotation
                    JOINT LeftHandIndex1
                    {
                      OFFSET 5.21684 -0.091368 0.999158
                      CHANNELS 3 Zrotation Xrotation Yrotation
                      JOINT LeftHandIndex2
                      {
                        OFFSET 3.61937 0 0
                        CHANNELS 3 Zrotation Xrotation Yrotation
                        JOINT LeftHandIndex3
                        {
                          OFFSET 2.0521 0 0
                          CHANNELS 3 Zrotation Xrotation Yrotation
                          End Site
                          {
                            OFFSET 1.805 0 0
                          }
                        }
                      }
                    }
                  }
                  JOINT LeftInHandMiddle
                  {
                    OFFSET 3.38211 0.517263 0.756737
                    CHANNELS 3 Zrotation Xrotation Yrotation
                    JOINT LeftHandMiddle1
                    {
                      OFFSET 5.17411 -0.084 0.313895
                      CHANNELS 3 Zrotation Xrotation Yrotation
                      JOINT LeftHandMiddle2
                      {
                        OFFSET 3.94947 0 0
                        CHANNELS 3 Zrotation Xrotation Yrotation
                        JOINT LeftHandMiddle3
                        {
                          OFFSET 2.47579 0 0
                          CHANNELS 3 Zrotation Xrotation Yrotation
                          End Site
                          {
                            OFFSET 1.975 0 0
                          }
                        }
                      }
                    }
                  }
                  JOINT LeftInHandRing
                  {
                    OFFSET 3.36516 0.537895 -0.128947
                    CHANNELS 3 Zrotation Xrotation Yrotation
                    JOINT LeftHandRing1
                    {
                      OFFSET 4.63474 -0.022105 -0.478947
                      CHANNELS 3 Zrotation Xrotation Yrotation
                      JOINT LeftHandRing2
                      {
                        OFFSET 3.44238 0 0
                        CHANNELS 3 Zrotation Xrotation Yrotation
                        JOINT LeftHandRing3
                        {
                          OFFSET 2.3881 0 0
                          CHANNELS 3 Zrotation Xrotation Yrotation
                          End Site
                          {
                            OFFSET 1.857 0 0
                          }
                        }
                      }
                    }
                  }
                  JOINT LeftInHandPinky
                  {
                    OFFSET 3.16105 0.469368 -1.20179
                    CHANNELS 3 Zrotation Xrotation Yrotation
                    JOINT LeftHandPinky1
                    {
                      OFFSET 4.14105 -0.022105 -1.09053
                      CHANNELS 3 Zrotation Xrotation Yrotation
                      JOINT LeftHandPinky2
                      {
                        OFFSET 2.75653 0 0
                        CHANNELS 3 Zrotation Xrotation Yrotation
                        JOINT LeftHandPinky3
                        {
                          OFFSET 1.74189 0 0
                          CHANNELS 3 Zrotation Xrotation Yrotation
                          End Site
                          {
                            OFFSET 1.645 0 0
                          }
                        }
                      }
                    }
                  }
                }
              }
            }
          }
        }
      }
    }
  }
}
MOTION
Frames: 3
Frame Time: 0.00833333
6.000094582088020161e+02 -1.747785361921895542e-02 -1.923320191759490469e-02 1.322595128789920971e-01 -5.107882822575440240e-01 -3.600444069863546481e-01 6.347374484642645531e-02 -2.992878441899439190e-01 5.849680833193723339e-01 -1.180178655934123050e-01 5.703712157783440151e-02 -5.322068984035235872e-02 -8.071247419349070196e-02 6.727162175546481937e-02 2.133761464369731131e-01 -2.358792039887147585e-01 -1.273022883173484041e-02 1.228201826203153546e-01 -1.153349006245840136e-01 4.797102293167020137e-02 9.453155367448221047e-02 8.429456019273268846e-04 3.213783614650210507e-02 2.068572399465517797e-01 -3.712454684888236156e-01 -9.203509790370638377e-02 1.016611280730983780e-01 -9.233866470907393931e-02 -1.054267720778199503e-02 1.218262878421649820e-02 -1.507225568029793850e-01 -9.926900992702072241e-03 8.577207085052097196e-03 1.261833337086103136e-04 -3.484553421045246541e-02 1.976172627999578379e-02 -1.423737983148019581e-01 -2.997255147460899383e-01 7.285229353398560148e-01 3.352133242508190808e-02 1.936923894837454529e-01 -3.900592253349179361e-01 1.199571486140578319e-01 -2.602204332357268002e-01 2.413561951399442393e-02 -4.231484825960404872e-02 -2.934356141882715763e-01 1.726704679177459567e-01 -3.243289411616650852e+00 9.186911517375934144e-01 -5.505079573121936853e+00 4.999757853072252511e-01 5.537443315993763049e-01 1.511798111490551877e+00 0.000000000000000000e+00 0.000000000000000000e+00 0.000000000000000000e+00 4.325794378648030094e-15 -4.094331224069635778e-15 0.000000000000000000e+00 6.651978772798326184e-15 -2.243684560171063080e-15 0.000000000000000000e+00 6.033304404558889332e-16 3.531176978339282502e-16 1.319563297985119960e-15 0.000000000000000000e+00 0.000000000000000000e+00 0.000000000000000000e+00 0.000000000000000000e+00 1.760647785572160941e-15 -6.844537871457938976e-15 0.000000000000000000e+00 5.559827667068146269e-15 3.463917638801507095e-14 6.033304404558889332e-16 3.531176978339282502e-16 1.319563297985119960e-15 0.000000000000000000e+00 -9.975827632060707682e-16 -7.816226161872651171e-15 0.000000000000000000e+00 -4.230450966672295550e-16 -1.438254404180741174e-15 0.000000000000000000e+00 4.085547096190204171e-15 2.808151769872480636e-14 6.033304404558889332e-16 3.531176978339282502e-16 1.319563297985119960e-15 0.000000000000000000e+00 0.000000000000000000e+00 0.000000000000000000e+00 0.000000000000000000e+00 -1.162916321578711282e-15 2.009240239915424883e-15 0.000000000000000000e+00 2.786616757482383651e-15 3.192823118878966089e-14 6.033304404558889332e-16 3.531176978339282502e-16 1.319563297985119960e-15 0.000000000000000000e+00 0.000000000000000000e+00 0.000000000000000000e+00 0.000000000000000000e+00 -3.741902370544592285e-16 -9.283591833190908553e-17 0.000000000000000000e+00 8.082358726232089588e-15 2.973626166546621506e-14 2.707355922504087742e-01 -2.402495327207666842e-01 6.924306609494546016e-02 -1.718434132583429141e+00 -1.161212852348432190e+00 1.942973649152299753e+00 -1.988149471685000336e+00 -2.935562002372698043e-01 -2.151071902388065560e+00 4.402318083169436957e-01 -9.577183492658948305e-01 -4.332216555163559413e-02 0.000000000000000000e+00 0.000000000000000000e+00 0.000000000000000000e+00 -2.800668074273622559e-15 -4.348448093911302763e-15 0.000000000000000000e+00 6.071442893645082661e-15 -1.045923112484517101e-15 0.000000000000000000e+00 6.295012451400429721e-16 -1.516501673069176341e-15 9.770286427760191472e-16 0.000000000000000000e+00 0.000000000000000000e+00 0.000000000000000000e+00 0.000000000000000000e+00 6.046790246275995476e-16 1.854577564130450199e-14 0.000000000000000000e+00 -4.106880940398839413e-15 2.402781408115607753e-14 6.295012451400429721e-16 -1.516501673069176341e-15 9.770286427760191472e-16 0.000000000000000000e+00 -3.246582591211418902e-15 6.859344141779632331e-15 0.000000000000000000e+00 -8.887247992658958004e-16 9.741618991598688257e-15 0.000000000000000000e+00 -5.210718007814045091e-15 1.845821426022298322e-14 6.295012451400429721e-16 -1.516501673069176341e-15 9.770286427760191472e-16 0.000000000000000000e+00 0.000000000000000000e+00 0.000000000000000000e+00 0.000000000000000000e+00 9.088253317399099077e-16 1.368755698942925524e-14 0.000000000000000000e+00 -2.178386051975407896e-16 2.143011873197260888e-14 6.295012451400429721e-16 -1.516501673069176341e-15 9.770286427760191472e-16 0.000000000000000000e+00 0.000000000000000000e+00 0.000000000000000000e+00 0.000000000000000000e+00 -3.214961771113884772e-15 1.098167004261712969e-14 0.000000000000000000e+00 8.742444321474754885e-16 7.864693892485973359e-15
6.000088982053275686e+02 -1.634930150121184644e-02 -1.561903934096506817e-02 1.187236634021582027e-01 -4.623831544153834683e-01 -3.337147902588391002e-01 8.906062824831290081e-02 -2.956734055483328238e-01 6.090677022672372765e-01 -1.091997692019330557e-01 6.684943239135501813e-02 -7.355676900979077337e-02 -5.680797725932609787e-02 4.676147983397364871e-02 1.671086032647494946e-01 -2.069507489785597787e-01 -2.653998772341633131e-02 1.360330769930351846e-01 -9.447324345026854309e-02 5.340778083660914499e-02 8.106101564657768044e-02 -3.695191285752012778e-04 3.394840856790210665e-02 1.743266692287533670e-01 -3.432040220137637099e-01 -7.437373422119364363e-02 1.160404147156476329e-01 -8.511199461230001262e-02 -6.729310675916629590e-03 1.695650536038727230e-02 -1.390294114590375218e-01 -4.577309734827769705e-03 1.761902622804097096e-02 4.574923674581388849e-04 -3.257153313478293455e-02 1.632013518612823733e-02 -1.209619382852051006e-01 -2.608184321468982603e-01 6.150957939471841662e-01 3.128508938833457487e-02 1.499180553911630964e-01 -3.505168974555233352e-01 1.163636773517777445e-01 -2.348037848537408157e-01 4.920428580348443215e-02 7.422298540127830746e-02 -4.528232684920732720e-01 1.430893838011274011e-01 -3.100802739678350406e+00 9.618926338148450217e-01 -5.415434215756892655e+00 4.780058343168673840e-01 5.440538658915574644e-01 1.493892587498431013e+00 0.000000000000000000e+00 0.000000000000000000e+00 0.000000000000000000e+00 3.724539120424018784e-15 -3.798177086178059882e-15 0.000000000000000000e+00 5.707516262237812201e-15 -1.868433957030745646e-15 0.000000000000000000e+00 2.330074275493354433e-16 3.948679822762767925e-16 1.533444930807995935e-15 0.000000000000000000e+00 0.000000000000000000e+00 0.000000000000000000e+00 0.000000000000000000e+00 1.091054668748511022e-15 -7.067309136061764390e-15 0.000000000000000000e+00 4.607940898174357671e-15 2.940952560098023980e-14 2.330074275493354433e-16 3.948679822762767925e-16 1.533444930807995935e-15 0.000000000000000000e+00 -8.069439408643430945e-16 -7.690406703680429829e-15 0.000000000000000000e+00 -3.447846063892307574e-16 -1.081885838022001364e-15 0.000000000000000000e+00 2.919866862437592451e-15 2.342904869689396293e-14 2.330074275493354433e-16 3.948679822762767925e-16 1.533444930807995935e-15 0.000000000000000000e+00 0.000000000000000000e+00 0.000000000000000000e+00 0.000000000000000000e+00 -9.993094982419691919e-16 2.000365635469044663e-15 0.000000000000000000e+00 2.244970463882481288e-15 2.806446752943175302e-14 2.330074275493354433e-16 3.948679822762767925e-16 1.533444930807995935e-15 0.000000000000000000e+00 0.000000000000000000e+00 0.000000000000000000e+00 0.000000000000000000e+00 -2.212055530523824558e-16 7.600344929907281096e-16 0.000000000000000000e+00 7.656322706914694042e-15 2.773168904850353024e-14 2.541025566051989815e-01 -2.137409793649621970e-01 7.293855168215308826e-02 -1.755972997530086621e+00 -1.187226664016511002e+00 2.031953684677981986e+00 -2.166469775885075499e+00 -5.154271296453292323e-02 -2.313098057639721095e+00 4.652141028608358653e-01 -1.020785697114991564e+00 -3.831928095654523608e-02 0.000000000000000000e+00 0.000000000000000000e+00 0.000000000000000000e+00 -2.975477543836475162e-15 -4.928401326482033705e-15 0.000000000000000000e+00 5.841438429738610942e-15 -1.098475360432605701e-15 0.000000000000000000e+00 6.458795763114098955e-16 -1.250784078819318035e-15 1.025012425395666422e-15 0.000000000000000000e+00 0.000000000000000000e+00 0.000000000000000000e+00 0.000000000000000000e+00 8.028261927737895273e-16 1.840599891201986879e-14 0.000000000000000000e+00 -3.871286395959971638e-15 2.251458133632897155e-14 6.458795763114098955e-16 -1.250784078819318035e-15 1.025012425395666422e-15 0.000000000000000000e+00 -2.629397615717771645e-15 6.686479275517737961e-15 0.000000000000000000e+00 -8.782418664368889459e-16 9.650660924061027095e-15 0.000000000000000000e+00 -4.546033373344454319e-15 1.703791894403801328e-14 6.458795763114098955e-16 -1.250784078819318035e-15 1.025012425395666422e-15 0.000000000000000000e+00 0.000000000000000000e+00 0.000000000000000000e+00 0.000000000000000000e+00 1.000060369193124920e-15 1.316252857151754906e-14 0.000000000000000000e+00 -4.907479729548937884e-16 2.039137094969157401e-14 6.458795763114098955e-16 -1.250784078819318035e-15 1.025012425395666422e-15 0.000000000000000000e+00 0.000000000000000000e+00 0.000000000000000000e+00 0.000000000000000000e+00 -3.074614914842318915e-15 1.080759835900693164e-14 0.000000000000000000e+00 8.287134052744513042e-16 6.898193097665043126e-15
6.000075209359440578e+02 -1.513170324520094270e-02 -1.208932748092169177e-02 1.050590328240949417e-01 -4.136765616867702500e-01 -3.044975709553391918e-01 1.108424410131605420e-01 -2.886013982758310892e-01 6.248906869650813212e-01 -1.008446933537877344e-01 7.452944398088694189e-02 -9.181304182738186936e-02 -3.386005942046200340e-02 2.715337990889493333e-02 1.227549059395519337e-01 -1.796828564756551838e-01 -3.968783746730057682e-02 1.455177675733012044e-01 -7.577381421938270134e-02 5.852452953149818449e-02 6.889771520070782362e-02 -1.181863485548087858e-03 3.512506154993770557e-02 1.414556820002609849e-01 -3.129808956025486033e-01 -5.836080482558706622e-02 1.255354038586501686e-01 -7.741586884953208236e-02 -3.427849211842675520e-03 2.055867169536124139e-02 -1.265616202337350449e-01 -3.907645768672305124e-05 2.473709681861517573e-02 7.669082996533013686e-04 -3.027821550022382832e-02 1.302740339751497396e-02 -9.940988326426158928e-02 -2.225729556317504465e-01 5.046044916559422333e-01 2.881045790622412811e-02 1.076017370341564305e-01 -3.095378667376400550e-01 1.118670019418202405e-01 -2.060216354367497560e-01 7.285327051820889022e-02 1.871287008864764290e-01 -6.166551631685988077e-01 1.092341873937160285e-01 -2.929099304747848187e+00 1.001997142414652764e+00 -5.273359188605097003e+00 4.512905689279310684e-01 5.324092068088439600e-01 1.465016411265188889e+00 0.000000000000000000e+00 0.000000000000000000e+00 0.000000000000000000e+00 3.094077427744662891e-15 -3.475498645471589351e-15 0.000000000000000000e+00 4.724214511555562984e-15 -1.474202997797068476e-15 0.000000000000000000e+00 -1.408849621223027441e-16 4.403714647111933163e-16 1.717994971866473527e-15 0.000000000000000000e+00 0.000000000000000000e+00 0.000000000000000000e+00 0.000000000000000000e+00 4.347924904520615303e-16 -7.231475021472390566e-15 0.000000000000000000e+00 3.607340778395962399e-15 2.389956730845572751e-14 -1.408849621223027441e-16 4.403714647111933163e-16 1.717994971866473527e-15 0.000000000000000000e+00 -6.099966627262829377e-16 -7.495615021280865776e-15 0.000000000000000000e+00 -2.457928565852290299e-16 -7.271539515095546350e-16 0.000000000000000000e+00 1.722695754086542009e-15 1.846501524224820043e-14 -1.408849621223027441e-16 4.403714647111933163e-16 1.717994971866473527e-15 0.000000000000000000e+00 0.000000000000000000e+00 0.000000000000000000e+00 0.000000000000000000e+00 -8.355628517277745859e-16 2.008730052070633456e-15 0.000000000000000000e+00 1.662148155217905211e-15 2.392973973112857898e-14 -1.408849621223027441e-16 4.403714647111933163e-16 1.717994971866473527e-15 0.000000000000000000e+00 0.000000000000000000e+00 0.000000000000000000e+00 0.000000000000000000e+00 -5.910517994400723780e-17 1.635971877720071380e-15 0.000000000000000000e+00 7.156218397273558312e-15 2.541673626174737857e-14 2.350590417063584958e-01 -1.872902778944486868e-01 7.442305258013949543e-02 -1.770034733043891251e+00 -1.198531102165203865e+00 2.090064665221334383e+00 -2.312085468877744354e+00 1.884202994541103182e-01 -2.445554408878255259e+00 4.874502411789816136e-01 -1.078003586875980302e+00 -3.538670595550919007e-02 0.000000000000000000e+00 0.000000000000000000e+00 0.000000000000000000e+00 -3.084682111116456576e-15 -5.452866080965881796e-15 0.000000000000000000e+00 5.590656307943481316e-15 -1.151900114887334512e-15 0.000000000000000000e+00 6.469436170941637589e-16 -9.697453992687968104e-16 1.071879598549141270e-15 0.000000000000000000e+00 0.000000000000000000e+00 0.000000000000000000e+00 0.000000000000000000e+00 9.987217219096761277e-16 1.809095345628816688e-14 0.000000000000000000e+00 -3.632130541773779005e-15 2.087423264459611061e-14 6.469436170941637589e-16 -9.697453992687968104e-16 1.071879598549141270e-15 0.000000000000000000e+00 -2.016360096495578783e-15 6.433826426615409361e-15 0.000000000000000000e+00 -8.240743050156899619e-16 9.466776490585514074e-15 0.000000000000000000e+00 -3.893651724046807691e-15 1.558990460031594937e-14 6.469436170941637589e-16 -9.697453992687968104e-16 1.071879598549141270e-15 0.000000000000000000e+00 0.000000000000000000e+00 0.000000000000000000e+00 0.000000000000000000e+00 1.082371072703883150e-15 1.252847667148941772e-14 0.000000000000000000e+00 -7.358280982853633079e-16 1.929328306854277476e-14 6.469436170941637589e-16 -9.697453992687968104e-16 1.071879598549141270e-15 0.000000000000000000e+00 0.000000000000000000e+00 0.000000000000000000e+00 0.000000000000000000e+00 -2.916615453124329844e-15 1.056871672673808391e-14 0.000000000000000000e+00 8.006275196722627161e-16 5.896865689878170588e-15
